<?xml version="1.0" standalone="no"?>
<!DOCTYPE svg PUBLIC "-//W3C//DTD SVG 20010904//EN"
 "http://www.w3.org/TR/2001/REC-SVG-20010904/DTD/svg10.dtd">
<svg version="1.0" xmlns="http://www.w3.org/2000/svg"
 width="1340.000000pt" height="1340.000000pt" viewBox="0 0 1340.000000 1340.000000"
 preserveAspectRatio="xMidYMid meet">
<metadata>
Created by potrace 1.11, written by Peter Selinger 2001-2013
</metadata>
<g transform="translate(0.000000,1340.000000) scale(0.100000,-0.100000)"
fill="#000000" stroke="none">
<path d="M2299 12936 c-2 -2 -35 -7 -74 -11 -79 -7 -128 -13 -165 -21 -14 -2
-36 -7 -50 -9 -193 -36 -413 -109 -600 -198 -66 -32 -271 -146 -280 -156 -3
-4 -25 -19 -50 -35 -169 -109 -378 -302 -533 -493 -65 -81 -187 -256 -187
-269 0 -3 -9 -18 -20 -33 -27 -39 -138 -262 -160 -324 -11 -29 -31 -83 -45
-122 -27 -75 -61 -192 -69 -238 -3 -15 -7 -35 -10 -45 -9 -30 -17 -74 -35
-212 -18 -130 -19 -294 -19 -4060 0 -2384 3 -3958 9 -4010 53 -476 220 -900
500 -1268 63 -83 174 -206 247 -275 30 -29 64 -61 76 -72 37 -36 199 -161 261
-201 33 -21 62 -41 65 -45 3 -3 37 -23 75 -44 39 -21 84 -46 101 -56 154 -85
424 -181 634 -225 14 -2 32 -7 40 -9 20 -6 139 -24 220 -33 88 -10 8854 -9
8952 1 43 4 83 9 90 12 7 2 31 6 53 9 192 24 551 143 731 242 49 27 160 90
192 109 131 78 337 247 456 374 22 24 52 55 67 70 41 43 174 216 214 280 6 9
22 34 37 56 117 176 236 454 298 696 22 83 26 100 35 149 3 14 7 34 9 45 5 25
15 100 26 190 11 93 11 7865 -1 7980 -13 134 -18 171 -40 270 -11 50 -22 98
-24 107 -20 92 -85 285 -127 377 -98 218 -179 356 -322 546 -79 105 -319 345
-426 426 -47 35 -87 66 -90 69 -10 10 -150 100 -156 100 -3 0 -18 8 -32 19
-127 88 -486 234 -682 275 -81 18 -120 25 -160 31 -90 13 -113 17 -134 23 -22
7 -8889 15 -8897 8z"/>
</g>
</svg>
